<svg width="200" height="27" viewBox="0 0 200 27" fill="none" xmlns="http://www.w3.org/2000/svg">
<path d="M63.8682 0C65.122 0.316074 66.4081 0.543551 67.6226 0.957799C69.5809 1.64878 71.3145 2.89266 72.6284 4.54955C71.691 5.58397 70.7812 6.58726 69.89 7.57859C65.0042 3.53907 60.7904 3.30201 57.6525 6.80516C55.1126 9.64264 55.1727 14.4843 57.7864 17.2859C60.7742 20.4825 65.1982 20.1593 69.6775 16.4167L72.7023 19.247C70.4972 21.6606 68.0359 23.2434 64.9349 23.6193C59.5505 24.2706 54.5977 22.1204 52.5381 16.953C49.5226 9.39122 53.337 1.34571 61.7301 0.210716C61.9863 0.159001 62.2386 0.0885872 62.4851 0L63.8682 0Z" fill="white"/>
<path d="M121.948 27L124.887 23.9037C124.732 23.7265 124.497 23.4248 124.238 23.1709C122.062 20.9359 119.883 18.7057 117.7 16.4803C113.859 12.565 115.082 6.37005 120.025 4.83987C121.354 4.41603 122.779 4.44447 124.091 4.92102C125.403 5.39758 126.534 6.29723 127.318 7.48836C128.128 8.677 128.532 10.1125 128.465 11.5665C128.398 13.0206 127.864 14.4097 126.948 15.5128C126.156 16.4707 125.141 17.2107 124.273 18.0081L127.525 21.2744C135.317 15.4841 133.902 6.03719 128.056 1.94234C123.483 -1.25932 117.437 -0.433162 113.672 3.90595C110.137 7.99123 110.066 14.5861 113.718 18.6474C116.322 21.545 119.175 24.2054 121.948 27Z" fill="white"/>
<path d="M96.226 0V8.18918H103.301V0.00957798H107.598V22.3981C106.372 22.3981 105.115 22.4412 103.869 22.355C103.677 22.3407 103.384 21.7396 103.377 21.3972C103.335 18.907 103.354 16.4143 103.354 13.924V12.5735H96.2606V22.3167H92.0814V0H96.226Z" fill="white"/>
<path d="M181.863 0V4.10417H174.174V8.03354H181.826V12.2095H174.167V17.9779H181.838V22.3167H170.023V0H181.863Z" fill="white"/>
<path d="M76.2951 22.4125V0H88.2024V4.13769H80.532V8.04791H85.3093C86.002 8.04791 86.6947 8.07664 87.3873 8.04791C88.02 8.01199 88.2948 8.23947 88.2694 8.92429C88.2301 9.98266 88.2694 11.0434 88.2694 12.2167H80.5574V18.0162H85.6533C88.2717 18.0162 88.2786 18.0162 88.2694 20.6502C88.2694 22.6448 88.4887 22.4077 86.5446 22.4149C83.5891 22.4149 80.6336 22.4149 77.6758 22.4149L76.2951 22.4125Z" fill="white"/>
<path d="M16.9893 0H21.1801V18.1982H27.1049V22.4412H24.6389C22.3738 22.4412 20.1087 22.4245 17.8436 22.4412C17.1925 22.4412 16.8716 22.3071 16.8739 21.5337C16.8993 14.5011 16.8924 7.46844 16.897 0.435799C16.9155 0.288026 16.9464 0.142208 16.9893 0Z" fill="white"/>
<path d="M135.409 22.4149V0H139.662V18.1838H145.666C145.666 19.4481 145.698 20.6214 145.636 21.7899C145.591 21.9354 145.511 22.0667 145.404 22.1715C145.297 22.2762 145.166 22.3509 145.024 22.3886C141.849 22.4269 138.674 22.4149 135.409 22.4149Z" fill="white"/>
<path d="M124.999 11.0707C124.98 12.7866 123.687 14.0122 121.952 13.9999C121.556 14.0025 121.164 13.9247 120.799 13.7712C120.434 13.6177 120.104 13.3917 119.828 13.1068C119.552 12.8219 119.337 12.484 119.195 12.1134C119.053 11.7429 118.987 11.3473 119.002 10.9506C119.01 10.5556 119.095 10.166 119.252 9.804C119.41 9.44199 119.637 9.11468 119.921 8.84074C120.205 8.5668 120.539 8.35161 120.906 8.20745C121.273 8.06329 121.664 7.99299 122.058 8.00055C122.452 8.00812 122.84 8.0934 123.201 8.25154C123.562 8.40968 123.889 8.63757 124.162 8.9222C124.435 9.20684 124.649 9.54264 124.793 9.91044C124.937 10.2782 125.007 10.6708 124.999 11.0658V11.0707Z" fill="white"/>
<path d="M8.04212 0.270578C5.37988 2.85446e-08 2.68301 0.071835 0 0V22.5418H4.22771V13.074C5.44684 12.9758 6.55053 12.904 7.64959 12.7938C10.7321 12.4849 12.9163 9.92041 12.981 6.58727C13.0456 3.11285 11.2169 0.605808 8.04212 0.270578ZM8.81331 6.75249C8.73019 7.82043 8.12062 8.37595 7.15778 8.56273C4.32238 9.09909 4.22078 9.01529 4.22078 6.07245V4.15685C5.40528 4.26939 6.442 4.26939 7.43024 4.49447C8.54316 4.7459 8.89874 5.63665 8.81331 6.75249Z" fill="white"/>
<path d="M163.971 4.22883C163.001 2.58076 161.491 1.35056 159.718 0.763993C156.13 -0.433256 152.442 0.174947 148.76 0.0240932V22.3432C151.683 22.3432 154.479 22.3935 157.27 22.3312C160.441 22.2594 162.932 20.7772 164.428 17.9278C166.843 13.3183 166.691 8.69218 163.971 4.22883ZM161.166 14.8197C160.394 16.8191 158.93 17.9756 156.779 18.093C155.746 18.1504 154.7 18.2343 153.68 18.2079C153.428 18.2079 152.976 17.8104 152.973 17.5925C152.934 13.2154 152.946 8.83585 152.946 4.11629C154.562 4.28869 156.017 4.31264 157.42 4.62871C159.21 5.03099 160.482 6.23542 161.142 8.00735C162.004 10.1887 162.012 12.6321 161.166 14.8197Z" fill="white"/>
<path d="M194.876 12.5859C195.454 12.2579 195.971 12.0088 196.442 11.688C198.543 10.2513 199.143 8.09623 198.88 5.70173C198.61 3.20427 197.458 1.24796 194.983 0.508061C192.025 -0.373115 188.993 0.196776 185.897 0.029161V1.48741C185.897 7.9318 185.897 14.3754 185.897 20.8182C185.897 22.7338 185.708 22.5183 187.564 22.5231C190.166 22.5231 190.166 22.5231 190.166 19.8891V13.2013L190.42 13.1271C190.626 13.4767 190.843 13.8191 191.03 14.1806C192.337 16.6853 193.609 19.2067 194.92 21.697C195.087 22.0154 195.382 22.4704 195.65 22.4872C197.035 22.5638 198.435 22.5231 200 22.5231L194.876 12.5859ZM192.835 8.61583C192.343 8.68527 191.845 8.72598 191.348 8.74753C191.011 8.7619 190.672 8.72119 190.168 8.69725V4.34165C191.191 4.34165 192.041 4.26024 192.87 4.3632C194.096 4.51166 194.867 5.46467 194.83 6.59727C194.793 7.76818 194.149 8.43146 192.835 8.61583Z" fill="white"/>
<path d="M49.047 21.0825C46.8273 15.1314 44.6038 9.18262 42.3764 3.23628C41.9931 2.20665 41.8453 0.772342 41.1111 0.279075C40.3214 -0.252503 38.9637 0.161745 37.8647 0.0396254C37.0519 -0.0417875 36.731 0.322176 36.4654 1.04292C33.9718 7.77146 31.4458 14.4904 28.9336 21.2118C28.7881 21.5997 28.6773 21.9996 28.4995 22.5455C29.8849 22.5455 31.1179 22.5958 32.3301 22.5096C32.6303 22.488 33.0228 22.0786 33.1636 21.7529C33.7039 20.4958 34.1611 19.2004 34.6714 17.8571C37.4421 17.8571 40.0882 17.8355 42.7343 17.8858C42.9185 17.9148 43.094 17.987 43.2473 18.097C43.4005 18.2069 43.5275 18.3517 43.6186 18.5204C44.0966 19.5907 44.4406 20.7233 44.9001 21.8032C45.0271 22.1025 45.3619 22.4952 45.632 22.5096C46.8812 22.5838 48.1349 22.5431 49.5157 22.5431C49.3264 21.9565 49.2063 21.5111 49.047 21.0825ZM36.2646 13.5614L39.0469 6.20546L41.8176 13.5614H36.2646Z" fill="white"/>
</svg>
